<?xml version="1.0" standalone="no"?>
<!DOCTYPE svg PUBLIC "-//W3C//DTD SVG 20010904//EN"
 "http://www.w3.org/TR/2001/REC-SVG-20010904/DTD/svg10.dtd">
<svg version="1.0" xmlns="http://www.w3.org/2000/svg"
 width="50.000000pt" height="60.000000pt" viewBox="0 0 1181.000000 1336.000000"
 preserveAspectRatio="xMidYMid meet">

<g transform="translate(0.000000,1336.000000) scale(0.100000,-0.100000)"
fill="#1d2e76" stroke="none">
<path d="M5550 13057 c-97 -94 -315 -307 -485 -472 -170 -165 -328 -318 -350
-340 -180 -177 -689 -671 -696 -676 -5 -3 -102 -97 -217 -210 -114 -112 -335
-327 -490 -478 -156 -151 -281 -277 -280 -281 2 -5 44 -45 93 -90 50 -46 171
-161 270 -255 99 -95 207 -197 240 -226 110 -98 229 -210 475 -446 156 -150
274 -254 286 -251 15 4 564 534 1152 1113 l192 189 83 -81 c45 -45 110 -105
144 -135 34 -29 175 -161 313 -293 139 -132 280 -264 314 -294 33 -30 168
-156 300 -280 131 -124 246 -227 256 -229 13 -2 85 62 226 200 115 112 222
217 239 233 17 17 173 167 345 335 173 168 365 354 427 414 62 60 113 115 113
121 0 13 -99 109 -285 279 -66 60 -199 185 -295 276 -96 92 -272 256 -390 366
-118 109 -258 242 -312 294 -53 52 -147 140 -209 195 -61 55 -196 181 -298
280 -103 99 -254 241 -336 315 -82 74 -219 203 -305 286 -85 83 -192 183 -237
223 -45 39 -85 76 -88 81 -3 6 -9 10 -13 10 -4 0 -86 -78 -182 -173z"/>
<path d="M8463 10338 c-120 -117 -306 -299 -413 -403 -107 -105 -265 -258
-350 -340 -85 -82 -256 -249 -380 -370 -124 -121 -293 -285 -375 -365 -749
-726 -957 -930 -953 -938 2 -4 68 -68 148 -142 80 -74 204 -191 275 -260 72
-69 238 -225 370 -346 132 -122 264 -247 293 -278 29 -30 59 -59 66 -63 8 -4
45 -37 83 -72 37 -35 80 -75 95 -89 l28 -25 67 63 c114 107 327 313 548 529
404 396 727 706 734 706 11 0 155 -133 596 -551 94 -88 188 -176 210 -194 22
-19 90 -81 150 -139 298 -287 440 -416 455 -416 15 0 243 216 785 746 110 108
251 245 314 305 198 190 251 243 251 252 0 8 -149 162 -158 162 -5 0 -261 239
-443 414 -75 72 -200 190 -279 261 -79 72 -224 207 -321 300 -97 94 -194 185
-215 204 -79 68 -252 230 -399 372 -82 80 -191 182 -242 227 -123 110 -273
251 -418 394 -66 65 -121 118 -124 118 -2 0 -41 34 -86 75 -46 41 -85 75 -89
75 -3 0 -103 -96 -223 -212z"/>
<path d="M2713 10309 c-102 -101 -201 -197 -218 -214 -56 -53 -643 -623 -855
-830 -113 -111 -270 -264 -349 -340 -80 -77 -237 -230 -350 -341 -113 -110
-251 -244 -306 -297 -55 -53 -176 -170 -269 -261 l-169 -165 59 -53 c115 -104
211 -194 344 -324 74 -73 151 -145 170 -161 43 -34 114 -100 332 -308 261
-248 452 -424 462 -424 11 -1 44 31 501 475 176 170 369 357 429 415 59 57
179 173 264 257 l156 152 41 -38 c150 -141 337 -315 384 -357 31 -27 103 -96
161 -152 58 -55 136 -130 175 -165 38 -34 115 -106 170 -158 55 -52 138 -131
185 -174 47 -43 129 -121 182 -172 53 -52 105 -94 116 -94 10 0 30 12 44 28
13 15 150 149 303 297 384 372 661 641 850 827 l159 157 -81 78 c-45 43 -137
128 -204 188 -67 61 -204 189 -304 285 -100 96 -244 231 -320 300 -76 69 -215
199 -310 290 -94 91 -243 230 -330 310 -88 80 -220 204 -295 276 -74 71 -196
186 -270 254 -74 68 -241 224 -370 346 -129 122 -250 234 -268 249 l-32 27
-187 -183z"/>
<path d="M11477 7791 c-31 -31 -57 -62 -57 -68 0 -7 -4 -13 -8 -13 -5 0 -55
-48 -113 -107 -470 -480 -1572 -1567 -1929 -1903 -15 -14 -119 -113 -231 -221
-112 -108 -242 -232 -289 -277 l-84 -81 -41 36 c-22 20 -72 66 -111 102 -39
36 -108 100 -155 141 -46 41 -130 118 -186 170 -56 52 -153 141 -215 196 -62
56 -142 128 -178 160 -37 33 -104 93 -150 134 -46 41 -116 104 -155 140 -39
36 -110 99 -159 140 -49 41 -125 107 -168 145 -44 39 -92 79 -107 90 -51 38
-224 190 -323 284 -54 52 -108 101 -121 109 -12 8 -64 54 -114 101 -208 193
-245 226 -265 237 -20 11 -97 78 -307 269 -177 161 -159 148 -183 131 -11 -8
-60 -52 -107 -98 -47 -46 -131 -124 -186 -173 -55 -49 -136 -123 -180 -164
-44 -41 -97 -87 -118 -102 -21 -15 -113 -100 -205 -187 -92 -88 -189 -178
-217 -200 -27 -22 -81 -72 -120 -112 -38 -40 -92 -90 -120 -112 -27 -22 -89
-77 -136 -122 -48 -44 -120 -108 -160 -141 -40 -33 -125 -110 -188 -170 -186
-176 -468 -437 -519 -478 -26 -22 -90 -80 -143 -130 -52 -51 -126 -117 -164
-147 -37 -30 -118 -103 -178 -162 -127 -124 -99 -124 -228 0 -42 41 -88 81
-102 91 -15 9 -107 94 -204 187 -187 178 -342 322 -446 413 -63 54 -130 118
-399 379 -81 78 -151 142 -156 142 -5 0 -32 21 -59 48 -79 75 -305 279 -338
304 -16 13 -45 39 -65 59 -19 20 -69 65 -110 100 -41 35 -133 117 -205 182
-71 65 -143 131 -160 146 -16 15 -82 76 -146 136 -166 158 -306 285 -313 285
-3 0 -6 -580 -6 -1290 l0 -1289 23 -12 c23 -12 37 -25 227 -199 110 -101 150
-138 325 -299 44 -41 87 -82 95 -91 22 -24 170 -161 280 -260 122 -109 219
-199 351 -324 58 -56 128 -121 155 -146 207 -189 288 -264 428 -395 87 -82
191 -179 230 -214 71 -64 130 -118 506 -470 113 -105 210 -190 217 -189 6 2
118 107 249 233 130 127 241 232 245 236 5 3 73 68 151 144 252 246 401 389
503 485 55 52 183 175 285 274 206 201 544 526 900 866 129 124 251 241 271
260 56 54 220 204 232 212 6 4 27 -6 46 -22 143 -117 453 -395 701 -630 160
-151 319 -297 460 -424 30 -26 100 -92 155 -145 55 -53 150 -142 210 -196 126
-114 358 -330 490 -455 113 -108 195 -184 310 -285 50 -43 137 -124 195 -180
203 -194 382 -356 390 -353 5 2 114 104 242 228 204 197 335 322 428 410 15
14 101 97 191 185 91 88 216 209 279 270 63 60 194 186 290 280 96 93 218 210
270 259 52 49 208 198 345 331 138 132 327 314 420 404 94 90 200 197 238 238
l67 73 0 1320 c0 725 -3 1321 -7 1323 -5 2 -34 -21 -66 -52z"/>


</g>
</svg>
